<svg width="247" height="65" viewBox="0 0 247 65" fill="none" xmlns="http://www.w3.org/2000/svg">
<g filter="url(#filter0_d_24472_1108)">
<rect x="5.00012" y="0.5" width="236.25" height="53.75" rx="12.5" fill="white"/>
</g>
<path fill-rule="evenodd" clip-rule="evenodd" d="M45.8 27.0057C45.8 26.208 45.7284 25.441 45.5955 24.7046H35V29.0563H41.0545C40.7938 30.4625 40.0011 31.654 38.8097 32.4517V35.2745H42.4455C44.5727 33.316 45.8 30.4319 45.8 27.0057Z" fill="#4285F4"/>
<path fill-rule="evenodd" clip-rule="evenodd" d="M35.0001 37.9997C38.0376 37.9997 40.5842 36.9923 42.4455 35.2741L38.8097 32.4514C37.8023 33.1264 36.5137 33.5253 35.0001 33.5253C32.07 33.5253 29.5898 31.5463 28.7052 28.8872H24.9467V31.802C26.7978 35.4787 30.6023 37.9997 35.0001 37.9997Z" fill="#34A853"/>
<path fill-rule="evenodd" clip-rule="evenodd" d="M28.7051 28.8875C28.4801 28.2125 28.3523 27.4915 28.3523 26.75C28.3523 26.0085 28.4801 25.2875 28.7051 24.6125V21.6978H24.9466C24.1847 23.2165 23.75 24.9347 23.75 26.75C23.75 28.5654 24.1847 30.2836 24.9466 31.8023L28.7051 28.8875Z" fill="#FBBC05"/>
<path fill-rule="evenodd" clip-rule="evenodd" d="M35.0001 19.9739C36.6518 19.9739 38.1347 20.5416 39.3006 21.6563L42.5273 18.4296C40.579 16.6143 38.0325 15.4995 35.0001 15.4995C30.6023 15.4995 26.7978 18.0205 24.9467 21.6972L28.7052 24.612C29.5898 21.9529 32.07 19.9739 35.0001 19.9739Z" fill="#EA4335"/>
<path d="M65.5249 32.665C66.8408 33.3145 68.2507 33.6392 69.7546 33.6392C71.606 33.6392 72.5317 32.7961 72.5317 31.1099C72.5317 30.563 72.3836 30.1215 72.0874 29.7854C71.7969 29.4436 71.2642 29.1759 70.4895 28.9822L67.9773 28.3499C66.0575 27.8656 65.0977 26.8402 65.0977 25.2737C65.0977 24.0717 65.5107 23.1802 66.3367 22.5991C67.1627 22.0124 68.3049 21.719 69.7632 21.719C70.5265 21.719 71.2415 21.8016 71.908 21.9668C72.5745 22.132 73.1327 22.3542 73.5828 22.6333L73.1555 23.8381C72.7738 23.6274 72.2668 23.4394 71.6345 23.2742C71.0079 23.109 70.3727 23.0264 69.729 23.0264C67.6668 23.0264 66.6357 23.7413 66.6357 25.1711C66.6357 25.6554 66.7924 26.0456 67.1057 26.3418C67.4247 26.6323 67.9004 26.8545 68.5327 27.0083L70.9338 27.5894C71.9592 27.8343 72.7368 28.2274 73.2666 28.7686C73.7964 29.304 74.0613 30.0674 74.0613 31.0586C74.0613 32.346 73.6654 33.3173 72.8735 33.9724C72.0874 34.6218 71.0164 34.9465 69.6606 34.9465C68.6466 34.9465 67.7437 34.844 66.9519 34.6389C66.1658 34.4281 65.542 34.1803 65.0806 33.8955L65.5249 32.665ZM77.6758 25.3762V34.75H76.2402V25.3762H77.6758ZM77.6758 21.9668V23.6587H76.2402V21.9668H77.6758ZM84.0076 33.5281C84.4918 33.5281 84.9162 33.4426 85.2808 33.2717C85.6453 33.1008 85.9302 32.8644 86.1353 32.5625C86.3403 32.2606 86.4913 31.9245 86.5881 31.5542C86.6907 31.1839 86.7419 30.7795 86.7419 30.3408V29.6487C86.7419 29.193 86.6907 28.7743 86.5881 28.3926C86.4856 28.0052 86.3261 27.6606 86.1096 27.3586C85.8988 27.051 85.614 26.8118 85.2551 26.6409C84.9019 26.47 84.4889 26.3845 84.0161 26.3845C83.623 26.3845 83.2642 26.4586 82.9395 26.6067C82.6204 26.7548 82.3556 26.9513 82.1448 27.1963C81.9397 27.4355 81.7631 27.7175 81.615 28.0422C81.4726 28.3612 81.37 28.686 81.3074 29.0164C81.2447 29.3468 81.2134 29.68 81.2134 30.0161C81.2134 30.3465 81.2476 30.6741 81.3159 30.9988C81.3843 31.3235 81.4925 31.6396 81.6406 31.9473C81.7887 32.2549 81.9682 32.5255 82.179 32.759C82.3897 32.9869 82.6518 33.172 82.9651 33.3145C83.2841 33.4569 83.6316 33.5281 84.0076 33.5281ZM81.8115 39.0396L81.6833 37.7493H83.4265C83.9107 37.7493 84.3323 37.7151 84.6912 37.6467C85.05 37.5784 85.3491 37.4644 85.5884 37.3049C85.8276 37.1511 86.0213 36.9774 86.1694 36.7837C86.3175 36.5957 86.4286 36.3479 86.5027 36.0403C86.5824 35.7384 86.6337 35.4364 86.6565 35.1345C86.685 34.8383 86.6992 34.4737 86.6992 34.0408V33.2119C86.3574 33.7018 85.9615 34.0806 85.5115 34.3484C85.0614 34.6104 84.4889 34.7415 83.7939 34.7415C83.2585 34.7415 82.7629 34.6503 82.3071 34.468C81.8571 34.28 81.4754 34.0322 81.1621 33.7246C80.8545 33.417 80.5896 33.061 80.3674 32.6565C80.151 32.252 79.9915 31.8333 79.8889 31.4004C79.7921 30.9674 79.7437 30.5317 79.7437 30.093C79.7437 29.4094 79.8263 28.7771 79.9915 28.196C80.1624 27.615 80.413 27.0966 80.7434 26.6409C81.0738 26.1851 81.5068 25.8291 82.0422 25.5728C82.5834 25.3107 83.2015 25.1797 83.8965 25.1797C84.5117 25.1797 85.0472 25.2993 85.5029 25.5386C85.9644 25.7721 86.3774 26.1339 86.7419 26.6238V25.3762H88.1348V34.075C88.1348 34.4737 88.1234 34.8212 88.1006 35.1174C88.0835 35.4194 88.0351 35.7526 87.9553 36.1172C87.8813 36.4818 87.7787 36.7951 87.6477 37.0571C87.5167 37.3192 87.3315 37.5812 87.0923 37.8433C86.8587 38.111 86.5767 38.3246 86.2463 38.4841C85.9216 38.6493 85.5172 38.7832 85.033 38.8857C84.5487 38.9883 84.0019 39.0396 83.3923 39.0396H81.8115ZM90.5188 34.75V25.3762H91.7151L91.8945 26.7178C92.2648 26.2563 92.7262 25.8861 93.2788 25.6069C93.8371 25.3221 94.4381 25.1797 95.0818 25.1797C96.1641 25.1797 96.9645 25.4845 97.4829 26.094C98.0013 26.6978 98.2605 27.6292 98.2605 28.8882V34.75H96.8335C96.8335 30.9902 96.8306 28.9765 96.825 28.7087C96.8022 27.9112 96.6398 27.3273 96.3379 26.957C96.0417 26.5868 95.5432 26.4016 94.8425 26.4016C94.1077 26.4016 93.4953 26.5782 93.0054 26.9314C92.5155 27.2846 92.1965 27.7432 92.0483 28.3071C91.9914 28.6888 91.9629 29.1274 91.9629 29.623V34.75H90.5188ZM106.694 25.3762V34.75H105.259V25.3762H106.694ZM106.694 21.9668V23.6587H105.259V21.9668H106.694ZM109.386 34.75V25.3762H110.582L110.762 26.7178C111.132 26.2563 111.593 25.8861 112.146 25.6069C112.704 25.3221 113.305 25.1797 113.949 25.1797C115.031 25.1797 115.832 25.4845 116.35 26.094C116.868 26.6978 117.128 27.6292 117.128 28.8882V34.75H115.701C115.701 30.9902 115.698 28.9765 115.692 28.7087C115.669 27.9112 115.507 27.3273 115.205 26.957C114.909 26.5868 114.41 26.4016 113.71 26.4016C112.975 26.4016 112.362 26.5782 111.873 26.9314C111.383 27.2846 111.064 27.7432 110.916 28.3071C110.859 28.6888 110.83 29.1274 110.83 29.623V34.75H109.386ZM131.97 34.75C130.654 30.5459 129.84 27.9283 129.526 26.8972C129.35 27.5238 129.148 28.2017 128.92 28.9309C128.692 29.6601 128.492 30.2867 128.322 30.8108C128.151 31.3349 127.928 32.0128 127.655 32.8445C127.382 33.6762 127.174 34.3114 127.031 34.75H125.493L122.819 25.3762H124.297L126.305 33.0496C126.584 32.1381 127.404 29.5803 128.766 25.3762H130.381C131.737 29.6715 132.534 32.2207 132.773 33.0239L134.756 25.3762H136.217L133.517 34.75H131.97ZM139.285 25.3762V34.75H137.849V25.3762H139.285ZM139.285 21.9668V23.6587H137.849V21.9668H139.285ZM144.967 34.9209C144.044 34.9209 143.389 34.6959 143.002 34.2458C142.614 33.7958 142.409 33.0695 142.386 32.0669V26.4358H140.994L141.053 25.4958L142.378 25.3762L142.865 23.2314L143.805 23.1973V25.3762H146.411V26.4358H143.805V31.8105C143.805 32.5226 143.913 33.0239 144.13 33.3145C144.346 33.605 144.716 33.7502 145.24 33.7502C145.428 33.7502 145.836 33.7047 146.462 33.6135L146.522 34.7415C145.844 34.8611 145.326 34.9209 144.967 34.9209ZM154.358 34.75V29.0847C154.358 28.1448 154.207 27.4612 153.905 27.0339C153.609 26.6067 153.088 26.3931 152.341 26.3931C151.624 26.3931 151.017 26.5725 150.521 26.9314C150.031 27.2903 149.712 27.7546 149.564 28.3242C149.513 28.7515 149.487 29.2271 149.487 29.7512V34.75H148.06V21.7361L149.487 21.6506V25.4617C149.487 25.7864 149.476 26.188 149.453 26.6665C150.256 25.6753 151.322 25.1797 152.649 25.1797C154.74 25.1797 155.785 26.4073 155.785 28.8625V34.75H154.358ZM167.697 34.938C166.734 34.938 165.868 34.7785 165.099 34.4595C164.336 34.1348 163.703 33.6847 163.202 33.1094C162.706 32.5283 162.325 31.8419 162.057 31.05C161.795 30.2582 161.664 29.3895 161.664 28.4438C161.664 27.1678 161.906 26.0399 162.39 25.0601C162.874 24.0802 163.595 23.3083 164.552 22.7444C165.509 22.1804 166.643 21.8984 167.953 21.8984C169.406 21.8984 170.682 22.2288 171.781 22.8896L171.217 24.1116C170.157 23.502 169.075 23.1973 167.97 23.1973C167.201 23.1973 166.512 23.3311 165.902 23.5989C165.298 23.8609 164.803 24.2284 164.415 24.7012C164.034 25.1683 163.74 25.7209 163.535 26.3589C163.336 26.9912 163.236 27.6862 163.236 28.4438C163.236 30.0503 163.635 31.3206 164.432 32.2549C165.236 33.1834 166.418 33.6477 167.979 33.6477C168.867 33.6477 169.77 33.4683 170.687 33.1094V29.5034H167.705L167.756 28.2131H172.072V33.9895C171.354 34.3313 170.659 34.5763 169.987 34.7244C169.32 34.8668 168.557 34.938 167.697 34.938ZM175.455 30.0845C175.455 31.1953 175.7 32.0868 176.19 32.759C176.686 33.4255 177.406 33.7588 178.352 33.7588C179.286 33.7588 179.99 33.4255 180.463 32.759C180.941 32.0925 181.18 31.1953 181.18 30.0674C181.18 28.9224 180.944 28.0223 180.471 27.3672C180.004 26.7064 179.289 26.376 178.326 26.376C177.392 26.376 176.68 26.7121 176.19 27.3843C175.7 28.0565 175.455 28.9565 175.455 30.0845ZM182.659 30.0588C182.659 31.5115 182.271 32.6907 181.497 33.5964C180.722 34.4965 179.651 34.9465 178.284 34.9465C176.968 34.9465 175.92 34.4908 175.139 33.5793C174.364 32.6679 173.977 31.4972 173.977 30.0674C173.977 28.609 174.367 27.4298 175.148 26.5298C175.928 25.6297 176.999 25.1797 178.361 25.1797C179.699 25.1797 180.75 25.6326 181.514 26.5383C182.277 27.4384 182.659 28.6119 182.659 30.0588ZM185.726 30.0845C185.726 31.1953 185.971 32.0868 186.461 32.759C186.957 33.4255 187.677 33.7588 188.623 33.7588C189.557 33.7588 190.261 33.4255 190.734 32.759C191.212 32.0925 191.451 31.1953 191.451 30.0674C191.451 28.9224 191.215 28.0223 190.742 27.3672C190.275 26.7064 189.56 26.376 188.597 26.376C187.663 26.376 186.951 26.7121 186.461 27.3843C185.971 28.0565 185.726 28.9565 185.726 30.0845ZM192.93 30.0588C192.93 31.5115 192.542 32.6907 191.768 33.5964C190.993 34.4965 189.922 34.9465 188.555 34.9465C187.239 34.9465 186.191 34.4908 185.41 33.5793C184.635 32.6679 184.248 31.4972 184.248 30.0674C184.248 28.609 184.638 27.4298 185.419 26.5298C186.199 25.6297 187.27 25.1797 188.632 25.1797C189.97 25.1797 191.021 25.6326 191.785 26.5383C192.548 27.4384 192.93 28.6119 192.93 30.0588ZM198.595 33.5281C199.079 33.5281 199.504 33.4426 199.868 33.2717C200.233 33.1008 200.518 32.8644 200.723 32.5625C200.928 32.2606 201.079 31.9245 201.176 31.5542C201.278 31.1839 201.329 30.7795 201.329 30.3408V29.6487C201.329 29.193 201.278 28.7743 201.176 28.3926C201.073 28.0052 200.914 27.6606 200.697 27.3586C200.486 27.051 200.201 26.8118 199.843 26.6409C199.489 26.47 199.076 26.3845 198.604 26.3845C198.21 26.3845 197.852 26.4586 197.527 26.6067C197.208 26.7548 196.943 26.9513 196.732 27.1963C196.527 27.4355 196.351 27.7175 196.202 28.0422C196.06 28.3612 195.957 28.686 195.895 29.0164C195.832 29.3468 195.801 29.68 195.801 30.0161C195.801 30.3465 195.835 30.6741 195.903 30.9988C195.972 31.3235 196.08 31.6396 196.228 31.9473C196.376 32.2549 196.556 32.5255 196.766 32.759C196.977 32.9869 197.239 33.172 197.553 33.3145C197.872 33.4569 198.219 33.5281 198.595 33.5281ZM196.399 39.0396L196.271 37.7493H198.014C198.498 37.7493 198.92 37.7151 199.279 37.6467C199.637 37.5784 199.937 37.4644 200.176 37.3049C200.415 37.1511 200.609 36.9774 200.757 36.7837C200.905 36.5957 201.016 36.3479 201.09 36.0403C201.17 35.7384 201.221 35.4364 201.244 35.1345C201.272 34.8383 201.287 34.4737 201.287 34.0408V33.2119C200.945 33.7018 200.549 34.0806 200.099 34.3484C199.649 34.6104 199.076 34.7415 198.381 34.7415C197.846 34.7415 197.35 34.6503 196.895 34.468C196.445 34.28 196.063 34.0322 195.75 33.7246C195.442 33.417 195.177 33.061 194.955 32.6565C194.738 32.252 194.579 31.8333 194.476 31.4004C194.379 30.9674 194.331 30.5317 194.331 30.093C194.331 29.4094 194.414 28.7771 194.579 28.196C194.75 27.615 195 27.0966 195.331 26.6409C195.661 26.1851 196.094 25.8291 196.63 25.5728C197.171 25.3107 197.789 25.1797 198.484 25.1797C199.099 25.1797 199.635 25.2993 200.09 25.5386C200.552 25.7721 200.965 26.1339 201.329 26.6238V25.3762H202.722V34.075C202.722 34.4737 202.711 34.8212 202.688 35.1174C202.671 35.4194 202.622 35.7526 202.543 36.1172C202.469 36.4818 202.366 36.7951 202.235 37.0571C202.104 37.3192 201.919 37.5812 201.68 37.8433C201.446 38.111 201.164 38.3246 200.834 38.4841C200.509 38.6493 200.105 38.7832 199.62 38.8857C199.136 38.9883 198.589 39.0396 197.98 39.0396H196.399ZM207.627 34.9209C206.716 34.9209 206.069 34.6759 205.687 34.186C205.311 33.6961 205.123 32.8445 205.123 31.6311V21.7361L206.542 21.6506V31.0671C206.542 31.4545 206.545 31.765 206.55 31.9985C206.562 32.2321 206.584 32.4628 206.619 32.6907C206.653 32.9128 206.698 33.0809 206.755 33.1948C206.812 33.3088 206.895 33.4141 207.003 33.511C207.111 33.6021 207.24 33.6648 207.388 33.699C207.542 33.7275 207.73 33.7417 207.952 33.7417C208.134 33.7417 208.493 33.7075 209.028 33.6392L209.105 34.7756C208.518 34.8725 208.026 34.9209 207.627 34.9209ZM215.377 27.1108C214.961 26.6095 214.389 26.3589 213.66 26.3589C212.931 26.3589 212.335 26.6181 211.874 27.1365C211.412 27.6492 211.142 28.3527 211.062 29.2471H216.01C216.01 28.3185 215.799 27.6064 215.377 27.1108ZM213.942 34.9465C212.58 34.9465 211.506 34.5136 210.72 33.6477C209.94 32.7818 209.55 31.5969 209.55 30.093C209.55 28.6404 209.928 27.464 210.686 26.564C211.444 25.6582 212.441 25.1968 213.677 25.1797C214.839 25.1797 215.759 25.5784 216.437 26.376C217.12 27.1678 217.462 28.2274 217.462 29.5547C217.462 29.623 217.459 29.7484 217.454 29.9307C217.454 30.113 217.454 30.244 217.454 30.3237H211.019C211.036 31.389 211.31 32.2207 211.84 32.8188C212.375 33.4113 213.093 33.7075 213.993 33.7075C214.984 33.7075 215.978 33.4455 216.975 32.9214L217.197 34.075C216.246 34.656 215.161 34.9465 213.942 34.9465Z" fill="#909090"/>
<defs>
<filter id="filter0_d_24472_1108" x="0.000121593" y="0.5" width="246.25" height="63.75" filterUnits="userSpaceOnUse" color-interpolation-filters="sRGB">
<feFlood flood-opacity="0" result="BackgroundImageFix"/>
<feColorMatrix in="SourceAlpha" type="matrix" values="0 0 0 0 0 0 0 0 0 0 0 0 0 0 0 0 0 0 127 0" result="hardAlpha"/>
<feOffset dy="5"/>
<feGaussianBlur stdDeviation="2.5"/>
<feColorMatrix type="matrix" values="0 0 0 0 0.783924 0 0 0 0 0.879167 0 0 0 0 0.831545 0 0 0 0.25 0"/>
<feBlend mode="normal" in2="BackgroundImageFix" result="effect1_dropShadow_24472_1108"/>
<feBlend mode="normal" in="SourceGraphic" in2="effect1_dropShadow_24472_1108" result="shape"/>
</filter>
</defs>
</svg>
